<svg width="16" height="16" viewBox="0 0 16 16" version="1.1" xmlns="http://www.w3.org/2000/svg" xmlns:xlink="http://www.w3.org/1999/xlink">
<title>facebook</title>
<desc>Created using Figma</desc>
<g id="Canvas" transform="translate(-396 -663)">
<g id="ic/24/social/facebook">
<g id="Shape">
<use xlink:href="#path0_fill" transform="translate(398 665)" fill="#484848"/>
</g>
<mask id="mask0_outline" mask-type="alpha">
<g id="Shape">
<use xlink:href="#path0_fill" transform="translate(398 665)" fill="#FFFFFF"/>
</g>
</mask>
</g>
</g>
<defs>
<path id="path0_fill" fill-rule="evenodd" d="M 11 0L 1 0C 0.440002 0 0 0.440002 0 1L 0 11C 0 11.56 0.440002 12 1 12L 5.60001 12L 8.00003 12L 11 12C 11.56 12 12 11.56 12 11L 12 1C 12 0.440002 11.56 0 11 0ZM 6.06174 7.5733L 4.60001 7.5733L 4.60001 5.97681L 6 5.97681L 6 4.6377C 6 3.54724 6.86569 2.62897 7.88889 2.53333L 9.53333 2.53333L 9.53333 4L 8.07159 4C 7.76099 4 7.52347 4.31244 7.52347 4.6377L 7.52347 5.97681L 9.35062 5.97681L 9.35062 7.5733L 7.52347 7.5733L 7.52347 11.4667L 6.06174 11.4667L 6.06174 7.5733ZM 7.95236 11.4667L 10.881 11.4667C 11.2129 11.4667 11.4666 11.2128 11.4667 10.8809L 11.4667 1.11902C 11.4667 0.787109 11.2129 0.533325 10.881 0.533325L 1.11905 0.533325C 0.78714 0.533325 0.533325 0.787109 0.533325 1.11902L 0.533325 10.8809C 0.533325 11.2128 0.78714 11.4667 1.11905 11.4667L 5.6095 11.4667L 5.6095 7.95239L 4.04761 7.95239L 4.04761 5.6095L 5.6095 5.6095L 5.6095 4.6333C 5.6095 3.3252 6.62476 2.21234 7.93286 2.09521L 10.1 2.09521L 10.1 4.43805L 8.14761 4.43805C 8.03046 4.43805 7.95236 4.51617 7.95236 4.6333L 7.95236 5.6095L 9.90475 5.6095L 9.90475 7.95239L 7.95236 7.95239L 7.95236 11.4667Z"/>
</defs>
</svg>
