<svg width="16" height="16" viewBox="0 0 16 16" version="1.1" xmlns="http://www.w3.org/2000/svg" xmlns:xlink="http://www.w3.org/1999/xlink">
<title>twitter</title>
<desc>Created using Figma</desc>
<g id="Canvas" transform="translate(-420 -663)">
<g id="ic/24/social/twitter">
<g id="Shape">
<use xlink:href="#path0_fill" transform="translate(422 666)" fill="#484848"/>
</g>
<mask id="mask0_outline" mask-type="alpha">
<g id="Shape">
<use xlink:href="#path0_fill" transform="translate(422 666)" fill="#FFFFFF"/>
</g>
</mask>
</g>
</g>
<defs>
<path id="path0_fill" fill-rule="evenodd" d="M 11.6868 1.06322C 11.7683 1.04241 11.8701 1.06322 11.9312 1.12572C 11.9923 1.18822 12.0127 1.29234 11.9924 1.37572C 11.809 1.97984 11.4424 2.41728 10.9943 2.64647L 10.9943 2.70891C 10.9943 6.72942 8.06133 9.99999 4.47655 9.99999C 2.46014 9.99999 0.830711 9.64586 0.0974349 9.04173C 0.0159835 8.95842 -0.0247575 8.85423 0.0159835 8.72923C 0.0566939 8.62511 0.158531 8.54179 0.280754 8.54179C 1.48248 8.52092 2.25643 8.22929 2.84713 7.87517C 1.7065 7.7293 0.993614 7.16686 0.627006 6.10448C 0.586265 6.00029 0.627006 5.89617 0.708458 5.83367C 0.78994 5.77117 0.912132 5.77117 0.993614 5.81279C 1.29913 6.0211 1.60467 6.06279 1.97128 6.06279C 1.19729 5.58367 0.484398 4.7921 0.199272 3.81297C 0.178886 3.70885 0.219627 3.58385 0.301109 3.54222C 0.402946 3.47972 0.504784 3.50054 0.586265 3.56304C 0.810295 3.75054 1.05474 3.87554 1.42135 3.93797C 0.627006 3.10472 0.138176 1.87566 0.830681 0.521593L 0.952904 0.271593L 1.15652 0.479906C 2.41936 1.83397 3.58031 2.45897 5.6986 2.8756L 5.6986 2.79222C 5.6986 1.27153 6.85958 0.0216536 8.30572 0.000840596C 8.876 0.000840596 9.67037 0.417467 9.99627 0.604906C 10.0041 0.604906 10.0118 0.607957 10.0185 0.610521C 10.0292 0.614732 10.037 0.617784 10.037 0.604906C 10.4444 0.479967 10.9332 0.271654 11.5035 0.0216536C 11.585 -0.0199724 11.6868 0.000840596 11.7479 0.0633406C 11.809 0.125841 11.8294 0.209154 11.7887 0.313341C 11.6868 0.604967 11.5239 0.917406 11.2795 1.20909L 11.6868 1.06322ZM 10.4902 2.49181L 10.6088 2.45152C 10.9842 2.31072 11.2016 2.00896 11.3399 1.74742L 10.5693 2.00896C 10.4705 2.04918 10.352 2.00896 10.3124 1.90837C 10.2729 1.80779 10.2927 1.68706 10.3717 1.6267C 10.6878 1.3651 10.925 1.08342 11.1028 0.781663C 10.7076 0.942613 10.3519 1.08342 10.0555 1.18407C 9.93697 1.22429 9.81841 1.20415 9.69985 1.14378L 9.68743 1.13689C 9.45519 1.0078 8.72332 0.600938 8.27715 0.620653C 7.09151 0.640794 6.14306 1.66692 6.14306 2.91429L 6.14306 3.47765L 5.90591 3.43743C 3.73232 3.03502 2.52694 2.45152 1.26229 1.18401C 0.669487 2.71312 1.89462 3.77947 2.30959 4.08122L 2.80355 4.44341L 2.191 4.44341C 1.7958 4.44341 1.36108 4.40318 0.965874 4.22209C 1.40063 5.14757 2.28982 5.83165 3.0407 6.05296L 2.98144 6.45537C 2.82336 6.45537 2.66525 6.45537 2.50719 6.47551C 2.09222 6.49559 1.71679 6.49559 1.36111 6.37486C 1.75631 7.13945 2.44793 7.46135 3.57424 7.46135L 4.16705 7.46135L 3.67303 7.82347C 3.06045 8.30638 2.27004 8.74901 0.906608 8.8496C 1.55868 9.17149 2.76403 9.47331 4.56222 9.47331C 7.64309 9.47331 10.4902 6.33263 10.4902 2.83385L 10.4902 2.49181Z"/>
</defs>
</svg>
